    <?xml version="1.0" encoding="UTF-8"?>
    <!DOCTYPE svg PUBLIC "-//W3C//DTD SVG 1.1//EN" "http://www.w3.org/Graphics/SVG/1.1/DTD/svg11.dtd">
    <!-- Creator: CorelDRAW 2019 (64-Bit Versión de evaluación) -->
    <svg xmlns="http://www.w3.org/2000/svg" xml:space="preserve" width="24.157mm" height="24.157mm" version="1.1" style="shape-rendering:geometricPrecision; text-rendering:geometricPrecision; image-rendering:optimizeQuality; fill-rule:evenodd; clip-rule:evenodd"
    viewBox="0 0 63.4 63.4"
    xmlns:xlink="http://www.w3.org/1999/xlink">
    <defs>
    <style type="text/css">
    <![CDATA[
        .fil0 {fill:#FF2100}
        .fil2 {fill:white}
        .fil1 {fill:url(#id0)}
    ]]>
    </style>
    <linearGradient id="id0" gradientUnits="userSpaceOnUse" x1="12.98" y1="8.34" x2="32.39" y2="31">
    <stop offset="0" style="stop-opacity:1; stop-color:#FFBDB1"/>
    <stop offset="0.270588" style="stop-opacity:1; stop-color:#FF6F59"/>
    <stop offset="1" style="stop-opacity:1; stop-color:#FF2100"/>
    </linearGradient>
    </defs>
    <g id="Capa_x0020_1">
    <metadata id="CorelCorpID_0Corel-Layer"/>
    <g id="_2021943156672">
    <path class="fil0" d="M31.7 0c17.51,0 31.7,14.19 31.7,31.7 0,17.51 -14.19,31.7 -31.7,31.7 -17.51,0 -31.7,-14.19 -31.7,-31.7 0,-17.51 14.19,-31.7 31.7,-31.7z"/>
    <path class="fil1" d="M29.62 2.11c13.98,0 25.32,11.33 25.32,25.31 0,13.98 -11.33,25.32 -25.32,25.32 -13.98,0 -25.31,-11.33 -25.31,-25.32 0,-13.98 11.33,-25.31 25.31,-25.31z"/>
    <path class="fil2" d="M55.12 13.63c-5.07,-3.04 -11.92,-2.28 -18.49,1.38 5.3,-2.7 10.73,-3.16 14.8,-0.72 7.46,4.48 7.53,17 0.15,27.96 -7.38,10.97 -19.4,16.23 -26.87,11.75 -6.71,-4.03 -7.44,-14.57 -2.14,-24.64l10.33 0.51 -4.68 8.53 2.77 0.02 7.84 -15.17 -2.3 -0 -2.93 5.34 -10.51 -0.19c0.45,-0.79 0.93,-1.58 1.46,-2.35 0.71,-1.06 1.47,-2.07 2.27,-3.02 -1.23,1.39 -2.4,2.9 -3.48,4.51 -8.72,12.97 -8.64,27.77 0.18,33.06 8.82,5.29 23.04,-0.93 31.77,-13.89 8.72,-12.97 8.64,-27.77 -0.18,-33.06zm-26.46 5.24c1.04,0 1.89,0.85 1.89,1.89 0,1.04 -0.85,1.89 -1.89,1.89 -1.04,0 -1.89,-0.85 -1.89,-1.89 0,-1.04 0.85,-1.89 1.89,-1.89z"/>
    </g>
    </g>
    </svg>
